<svg xmlns="http://www.w3.org/2000/svg" viewBox="0 0 149.49 149.49"><defs><style>.cls-1{fill:#6e75ee;}</style></defs><title>Asset 1</title><g id="Layer_2" data-name="Layer 2"><g id="Layer_1-2" data-name="Layer 1"><path class="cls-1" d="M117.83,64H36.77l2.87,2.87V39.28l-2.87,2.87h81.06L115,39.28V66.91c0,3.69,5.74,3.69,5.74,0V39.28a2.89,2.89,0,0,0-2.87-2.86H36.77a2.89,2.89,0,0,0-2.86,2.86V66.91a2.89,2.89,0,0,0,2.86,2.86h81.06C121.53,69.77,121.53,64,117.83,64Z"/><path class="cls-1" d="M117.83,91.66H36.77l2.87,2.87V66.91l-2.87,2.86h81.06L115,66.91V94.53c0,3.7,5.74,3.7,5.74,0V66.91A2.9,2.9,0,0,0,117.83,64H36.77a2.89,2.89,0,0,0-2.86,2.87V94.53a2.89,2.89,0,0,0,2.86,2.86h81.06C121.53,97.39,121.53,91.66,117.83,91.66Z"/><path class="cls-1" d="M117.83,119.28H36.77l2.87,2.87V94.53l-2.87,2.86h81.06L115,94.53v27.62c0,3.7,5.74,3.7,5.74,0V94.53a2.9,2.9,0,0,0-2.87-2.87H36.77a2.89,2.89,0,0,0-2.86,2.87v27.62A2.89,2.89,0,0,0,36.77,125h81.06C121.53,125,121.53,119.28,117.83,119.28Z"/><path class="cls-1" d="M25.35,53.09V25.47l-2.87,2.87H51.07c3.7,0,3.7-5.73,0-5.73H22.48a2.89,2.89,0,0,0-2.87,2.86V53.09c0,3.7,5.74,3.7,5.74,0Z"/><path class="cls-1" d="M37.6,83.58H81.67c3.7,0,3.7-5.73,0-5.73H37.6c-3.7,0-3.7,5.73,0,5.73Z"/><path class="cls-1" d="M102,77.85H98.46a2.87,2.87,0,1,0,0,5.73H102a2.87,2.87,0,0,0,0-5.73Z"/><path class="cls-1" d="M37.6,55.25H81.67c3.7,0,3.7-5.73,0-5.73H37.6c-3.7,0-3.7,5.73,0,5.73Z"/><path class="cls-1" d="M102,49.52H98.46a2.87,2.87,0,1,0,0,5.73H102a2.87,2.87,0,0,0,0-5.73Z"/><path class="cls-1" d="M37.6,111.21H81.67c3.7,0,3.7-5.74,0-5.74H37.6c-3.7,0-3.7,5.74,0,5.74Z"/><path class="cls-1" d="M102,105.47H98.46a2.87,2.87,0,0,0,0,5.74H102a2.87,2.87,0,0,0,0-5.74Z"/><path class="cls-1" d="M146.62,143.75H2.87l2.86,2.87V2.87L2.87,5.73H146.62l-2.87-2.86V146.62c0,3.7,5.74,3.7,5.74,0V2.87A2.9,2.9,0,0,0,146.62,0H2.87A2.89,2.89,0,0,0,0,2.87V146.62a2.9,2.9,0,0,0,2.87,2.87H146.62C150.32,149.49,150.32,143.75,146.62,143.75Z"/></g></g></svg>