<svg xmlns="http://www.w3.org/2000/svg" viewBox="0 0 154.94 156.01"><defs><style>.cls-1{fill:#6e75ee;}</style></defs><title>Asset 6</title><g id="Layer_2" data-name="Layer 2"><g id="Layer_1-2" data-name="Layer 1"><path class="cls-1" d="M152,150H3l3,3V3L3,6H152l-3-3V153c0,3.86,5.95,3.86,5.95,0V3a3,3,0,0,0-3-3H3A3,3,0,0,0,0,3V153a3,3,0,0,0,3,3H152C155.8,156,155.8,150,152,150Z"/><path class="cls-1" d="M79.57,37.79l-9.41-9.48v4.24l9.41-9.48h-4.2l9.4,9.48V28.31l-9.4,9.48c-2.71,2.73,1.49,7,4.2,4.23L89,32.55a3.06,3.06,0,0,0,0-4.24l-9.41-9.47a3,3,0,0,0-4.2,0L66,28.31a3.06,3.06,0,0,0,0,4.24L75.37,42C78.08,44.75,82.28,40.52,79.57,37.79Z"/><path class="cls-1" d="M79.57,132.93l-9.41-9.47v4.23l9.41-9.47h-4.2l9.4,9.47v-4.23l-9.4,9.47c-2.71,2.73,1.49,7,4.2,4.23L89,127.69a3,3,0,0,0,0-4.23L79.57,114a3,3,0,0,0-4.2,0L66,123.46a3,3,0,0,0,0,4.23l9.41,9.47C78.08,139.89,82.28,135.66,79.57,132.93Z"/><path class="cls-1" d="M117.41,80.12l9.41-9.47h-4.2l9.4,9.47V75.89l-9.4,9.47h4.2l-9.41-9.47c-2.71-2.73-6.91,1.5-4.2,4.23l9.41,9.47a3,3,0,0,0,4.2,0l9.4-9.47a3,3,0,0,0,0-4.23l-9.4-9.47a3,3,0,0,0-4.2,0l-9.41,9.47C110.5,78.62,114.7,82.85,117.41,80.12Z"/><path class="cls-1" d="M22.92,80.12l9.4-9.47h-4.2l9.41,9.47V75.89l-9.41,9.47h4.2l-9.4-9.47c-2.72-2.73-6.92,1.5-4.21,4.23l9.41,9.47a3,3,0,0,0,4.2,0l9.41-9.47a3,3,0,0,0,0-4.23l-9.41-9.47a3,3,0,0,0-4.2,0l-9.41,9.47C16,78.62,20.2,82.85,22.92,80.12Z"/><path class="cls-1" d="M107.2,51.06V37.67l-3,3h13.3l-3-3V51.06l3-3h-13.3c-3.84,0-3.84,6,0,6h13.3a3,3,0,0,0,3-3V37.67a3,3,0,0,0-3-3h-13.3a3,3,0,0,0-3,3V51.06C101.26,54.92,107.2,54.92,107.2,51.06Z"/><path class="cls-1" d="M40.38,118.34V105l-3,3h13.3l-3-3v13.39l3-3H37.41c-3.83,0-3.83,6,0,6h13.3a3,3,0,0,0,3-3V105a3,3,0,0,0-3-3H37.41a3,3,0,0,0-3,3v13.39C34.44,122.2,40.38,122.2,40.38,118.34Z"/><path class="cls-1" d="M104.23,107.94h13.3l-3-3v13.39l3-3h-13.3l3,3V105c0-3.86-5.94-3.86-5.94,0v13.39a3,3,0,0,0,3,3h13.3a3,3,0,0,0,3-3V105a3,3,0,0,0-3-3h-13.3C100.39,102,100.39,107.94,104.23,107.94Z"/><path class="cls-1" d="M37.41,40.66h13.3l-3-3V51.06l3-3H37.41l3,3V37.67c0-3.86-5.94-3.86-5.94,0V51.06a3,3,0,0,0,3,3h13.3a3,3,0,0,0,3-3V37.67a3,3,0,0,0-3-3H37.41C33.58,34.67,33.58,40.66,37.41,40.66Z"/></g></g></svg>