<svg xmlns="http://www.w3.org/2000/svg" viewBox="0 0 156.49 137.92"><defs><style>.cls-1{fill:#6e75ee;}</style></defs><title>Asset 10</title><g id="Layer_2" data-name="Layer 2"><g id="Layer_1-2" data-name="Layer 1"><path class="cls-1" d="M153.05,88.8H3.44l3.44,3.44V3.44L3.44,6.88H153.05l-3.44-3.44v88.8c0,4.43,6.88,4.43,6.88,0V3.44A3.47,3.47,0,0,0,153.05,0H3.44A3.47,3.47,0,0,0,0,3.44v88.8a3.47,3.47,0,0,0,3.44,3.44H153.05C157.49,95.68,157.49,88.8,153.05,88.8Z"/><path class="cls-1" d="M91.37,88.8H65.12a3.47,3.47,0,0,0-3.44,3.44v23.81a3.47,3.47,0,0,0,3.44,3.44H91.37a3.47,3.47,0,0,0,3.44-3.44V92.24c0-4.44-6.88-4.44-6.88,0v23.81l3.44-3.44H65.12l3.44,3.44V92.24l-3.44,3.44H91.37C95.81,95.68,95.81,88.8,91.37,88.8Z"/><path class="cls-1" d="M116.55,130.86H39.94l1.74,6.41L61.6,122.83l4.29-3.11c2.08-1.51-1.48-.23-.22-.23H90.82c1.26,0-2.3-1.28-.22.23l4.29,3.11,19.92,14.44c3.6,2.61,7-3.36,3.47-5.94L97.9,116.56c-1.94-1.41-4.32-4-6.89-4H65.67c-2.59,0-4.66,2.19-6.64,3.63L38.21,131.33c-2.64,1.91-1.93,6.41,1.73,6.41h76.61C121,137.74,121,130.86,116.55,130.86Z"/><path class="cls-1" d="M105.4,80.11H51.1l2,2V42.83l-2,2h54.3l-2-2V82.09a2,2,0,0,0,4,0V42.83a2,2,0,0,0-2-2H51.1a2,2,0,0,0-2,2V82.09a2,2,0,0,0,2,2h54.3A2,2,0,0,0,105.4,80.11Z"/><path class="cls-1" d="M79,9.36A21.88,21.88,0,0,0,58,24.48c-1,3.1-1,6.33-1,9.54V42.1a2,2,0,0,0,2,2H98.5a2,2,0,0,0,2-2c0-5.42.6-11.28-.68-16.6C97.52,16,88.55,9.49,79,9.36c-2.56,0-2.56,3.93,0,4A17.83,17.83,0,0,1,96.32,28.13a42.38,42.38,0,0,1,.2,7.39V42.1l2-2H59l2,2c0-4.57-.5-9.44.2-14A17.79,17.79,0,0,1,79,13.32C81.52,13.32,81.52,9.36,79,9.36Z"/><path class="cls-1" d="M49.7,44.23,76.85,67.85a2,2,0,0,0,2.8,0L106.8,44.23c1.93-1.68-.88-4.47-2.8-2.8L76.85,65.05h2.8L52.5,41.43c-1.92-1.67-4.74,1.12-2.8,2.8Z"/><path class="cls-1" d="M77.8,71.94V54.11l-2,2h4.86l-2-2V71.94l2-2H75.82c-2.56,0-2.56,4,0,4h4.86a2,2,0,0,0,2-2V54.11a2,2,0,0,0-2-2H75.82a2,2,0,0,0-2,2V71.94C73.84,74.49,77.8,74.49,77.8,71.94Z"/></g></g></svg>