<svg xmlns="http://www.w3.org/2000/svg" viewBox="0 0 128.59 156.43"><defs><style>.cls-1{fill:#6e75ee;}</style></defs><title>Asset 2</title><g id="Layer_2" data-name="Layer 2"><g id="Layer_1-2" data-name="Layer 1"><path class="cls-1" d="M102.25,150.43H3l3,3V3L3,6H125.59l-3-3V130.37c0,3.87,6,3.87,6,0V3a3,3,0,0,0-3-3H3A3,3,0,0,0,0,3V153.43a3,3,0,0,0,3,3h99.25c3.87,0,3.87-6,0-6Z"/><path class="cls-1" d="M106.13,153.43V131l-3,3h22.46c3.87,0,3.87-6,0-6H103.13a3,3,0,0,0-3,3v22.46c0,3.87,6,3.87,6,0Z"/><path class="cls-1" d="M34.82,57.55H48l-3-3V84.28c0,3.51.06,7,0,10.53-.19,9.07-8.32,16.09-17.12,16.09-3.86,0-3.86,6,0,6a23.15,23.15,0,0,0,21.38-14.19c2.06-5,1.76-10.2,1.76-15.47V54.55a3,3,0,0,0-3-3H34.82c-3.87,0-3.87,6,0,6Z"/><path class="cls-1" d="M89,51.55H64.29a3,3,0,0,0-3,3c0,3.3.08,6.22,1.45,9.31C64.49,67.79,68.8,70.48,73,71c3.31.38,6.37-.38,9.35,1.51,3.19,2,3,5.88,3,9.15l3-3H64.83c-3.87,0-3.87,6,0,6H88.26a3,3,0,0,0,3-3c0-3.3-.08-6.23-1.46-9.32-1.74-3.92-6-6.62-10.21-7.1-3.3-.38-6.36.38-9.34-1.52-3.19-2-3-5.88-3-9.14l-3,3H89c3.87,0,3.87-6,0-6Z"/></g></g></svg>