<svg xmlns="http://www.w3.org/2000/svg" viewBox="0 0 570.17 131.49"><defs><style>.cls-1{fill:#253137;}.cls-2{fill:#fff;}</style></defs><title>Asset 4</title><g id="Layer_2" data-name="Layer 2"><g id="Layer_1-2" data-name="Layer 1"><rect class="cls-1" width="131.49" height="131.49"/><polygon class="cls-2" points="116.88 14.61 116.88 46.77 93.95 46.77 52.87 116.88 14.61 116.88 14.61 84.56 35.19 84.56 76.7 14.61 116.88 14.61"/><polygon class="cls-2" points="90.33 116.88 116.88 68.72 116.88 116.88 90.33 116.88"/><polygon class="cls-2" points="41.17 14.61 14.61 62.77 14.61 14.61 41.17 14.61"/><path class="cls-2" d="M185.52,115.52a41.84,41.84,0,0,1-10.8-3.35V98.11a52.11,52.11,0,0,0,11.53,4.09,51.44,51.44,0,0,0,11.43,1.37c4.06,0,7.13-.7,9.23-2.1a6.67,6.67,0,0,0,3.15-5.87A7,7,0,0,0,208.48,91a14.14,14.14,0,0,0-4.56-3.41q-3-1.51-9.17-4-10.29-4.2-14.9-9.39a18.65,18.65,0,0,1-4.61-12.84,18.55,18.55,0,0,1,3.36-11A21.7,21.7,0,0,1,188,43a35.4,35.4,0,0,1,14.06-2.62,56.8,56.8,0,0,1,11.53,1.05,46.49,46.49,0,0,1,9.86,3.25V58.26A41,41,0,0,0,205,53.65q-5.86,0-9.23,2A6.93,6.93,0,0,0,194,66a13.74,13.74,0,0,0,4.41,3.15q2.82,1.36,9.22,4a67.09,67.09,0,0,1,11.65,6A18.54,18.54,0,0,1,225.47,86a21.3,21.3,0,0,1,2,9.7q0,10-7.18,15.52t-21.44,5.56A70.87,70.87,0,0,1,185.52,115.52Z"/><path class="cls-2" d="M247,113.48a24.7,24.7,0,0,1-10.59-9.34A26.31,26.31,0,0,1,232.71,90a26.22,26.22,0,0,1,3.72-14A24.92,24.92,0,0,1,247,66.65a39.6,39.6,0,0,1,31.88,0,24.92,24.92,0,0,1,10.59,9.44,26.23,26.23,0,0,1,3.73,14,26.31,26.31,0,0,1-3.73,14.1A24.74,24.74,0,0,1,279,113.48a36.16,36.16,0,0,1-15.94,3.3A36.54,36.54,0,0,1,247,113.48Zm26.17-13Q277,96.54,277,90q0-6.71-3.72-10.54T263,75.67q-6.5,0-10.27,3.83T249,90q0,6.49,3.83,10.43T263,104.41Q269.41,104.41,273.19,100.47Z"/><path class="cls-2" d="M308.21,115.52a42.09,42.09,0,0,1-10.8-3.35V98.11A52.19,52.19,0,0,0,309,102.2a51.3,51.3,0,0,0,11.43,1.37q6.08,0,9.23-2.1a6.69,6.69,0,0,0,3.14-5.87A7,7,0,0,0,331.18,91a14.36,14.36,0,0,0-4.56-3.41q-3-1.51-9.18-4-10.28-4.2-14.89-9.39a18.6,18.6,0,0,1-4.61-12.84,18.54,18.54,0,0,1,3.35-11,21.73,21.73,0,0,1,9.44-7.4,35.35,35.35,0,0,1,14-2.62,56.9,56.9,0,0,1,11.54,1.05,46.68,46.68,0,0,1,9.86,3.25V58.26a41.07,41.07,0,0,0-18.46-4.61c-3.92,0-7,.68-9.23,2a6.47,6.47,0,0,0-3.36,5.82A6.55,6.55,0,0,0,316.71,66a13.69,13.69,0,0,0,4.4,3.15q2.83,1.36,9.23,4a67.32,67.32,0,0,1,11.64,6A18.48,18.48,0,0,1,348.17,86a21.3,21.3,0,0,1,2,9.7q0,10-7.18,15.52t-21.45,5.56A71,71,0,0,1,308.21,115.52Z"/><path class="cls-2" d="M363.11,111.9q-4.56-4.87-4.56-13.58v-22h-7.34V64.87h7.34V49.77h15.84v15.1h11.85V76.3H374.39V96.23c0,2.93.55,5,1.67,6.34s3.11,1.94,6,1.94a13.85,13.85,0,0,0,6.61-1.68v11.85a30.62,30.62,0,0,1-12.17,2.1Q367.68,116.78,363.11,111.9Z"/><path class="cls-2" d="M398.14,112.11q-5.82-4.67-5.82-12.74,0-8.39,5.56-13.05t15.73-4.67a38.16,38.16,0,0,1,8.6.94,29.83,29.83,0,0,1,7.23,2.62V84q0-4.72-3.35-6.92t-10.28-2.21a41.35,41.35,0,0,0-17,3.46V66.76a41.11,41.11,0,0,1,8.7-2.47,58.69,58.69,0,0,1,10.7-1q13.63,0,20.34,5.61t6.72,15.68v30.62h-14.9v-4.62q-6.39,6.19-17.19,6.19Q403.95,116.78,398.14,112.11Zm26.37-7.28a11.94,11.94,0,0,0,4.93-4.09v-5a20.76,20.76,0,0,0-11.74-3.56q-4.41,0-6.77,1.83a6.45,6.45,0,0,0-2.36,5.4,6.1,6.1,0,0,0,2.31,5.14q2.31,1.78,6.61,1.78A16.36,16.36,0,0,0,424.51,104.83Z"/><path class="cls-2" d="M460.85,111.9q-4.56-4.87-4.56-13.58v-22H449V64.87h7.34V49.77h15.83v15.1H484V76.3H472.12V96.23c0,2.93.56,5,1.68,6.34s3.11,1.94,6,1.94a13.78,13.78,0,0,0,6.6-1.68v11.85a30.57,30.57,0,0,1-12.16,2.1Q465.42,116.78,460.85,111.9Z"/><path class="cls-2" d="M496.24,54.7a8.56,8.56,0,0,1,0-12.11,9,9,0,0,1,12.38,0,8.56,8.56,0,0,1,0,12.11,9.15,9.15,0,0,1-12.38,0Zm-1.78,10.17H510.4v50.34H494.46Z"/><path class="cls-2" d="M528,109.81q-8.09-7-8.08-19.67t8.13-19.76q8.13-7.08,21.76-7.08,12.38,0,19.71,4.61V80.39a23.11,23.11,0,0,0-7.81-3.56,37.26,37.26,0,0,0-9.38-1.16q-7.35,0-11.75,3.57t-4.4,10.9q0,7.35,4.35,10.86t11.69,3.51a32.68,32.68,0,0,0,17.93-4.93V112q-7.75,4.82-20.45,4.82Q536.1,116.78,528,109.81Z"/></g></g></svg>