<svg xmlns="http://www.w3.org/2000/svg" viewBox="0 0 573.39 134.18"><defs><style>.cls-1{fill:#6e77ee;}</style></defs><title>Asset 2</title><g id="Layer_2" data-name="Layer 2"><g id="Layer_1-2" data-name="Layer 1"><path class="cls-1" d="M188.74,132.92a41.84,41.84,0,0,1-10.8-3.35V115.51a52.11,52.11,0,0,0,11.53,4.09A51.44,51.44,0,0,0,200.9,121c4.06,0,7.13-.7,9.23-2.1a6.67,6.67,0,0,0,3.15-5.87,7,7,0,0,0-1.58-4.62,14.24,14.24,0,0,0-4.56-3.4q-3-1.53-9.17-4-10.29-4.2-14.9-9.39a18.65,18.65,0,0,1-4.61-12.84,18.55,18.55,0,0,1,3.36-11,21.7,21.7,0,0,1,9.43-7.4,35.4,35.4,0,0,1,14.06-2.62,56.8,56.8,0,0,1,11.53,1.05A46.49,46.49,0,0,1,226.7,62V75.66a41,41,0,0,0-18.46-4.61q-5.87,0-9.23,2a6.46,6.46,0,0,0-3.35,5.82,6.53,6.53,0,0,0,1.57,4.5,13.74,13.74,0,0,0,4.41,3.15q2.82,1.37,9.22,4a65.84,65.84,0,0,1,11.64,6,18.38,18.38,0,0,1,6.19,6.81,21.3,21.3,0,0,1,2,9.7q0,10-7.18,15.52t-21.44,5.56A70.87,70.87,0,0,1,188.74,132.92Z"/><path class="cls-1" d="M250.24,130.88a24.58,24.58,0,0,1-10.59-9.34,26.28,26.28,0,0,1-3.72-14.1,26.22,26.22,0,0,1,3.72-14,24.92,24.92,0,0,1,10.59-9.44,39.6,39.6,0,0,1,31.88,0,24.92,24.92,0,0,1,10.59,9.44,28.23,28.23,0,0,1,0,28.05,24.61,24.61,0,0,1-10.54,9.34,36.16,36.16,0,0,1-15.94,3.3A36.54,36.54,0,0,1,250.24,130.88Zm26.17-13q3.76-3.93,3.77-10.43,0-6.7-3.72-10.54t-10.23-3.83q-6.5,0-10.27,3.83t-3.78,10.54q0,6.51,3.83,10.43t10.22,3.94Q272.64,121.81,276.41,117.87Z"/><path class="cls-1" d="M311.43,132.92a42.09,42.09,0,0,1-10.8-3.35V115.51a52.19,52.19,0,0,0,11.54,4.09A51.3,51.3,0,0,0,323.6,121q6.07,0,9.23-2.1A6.69,6.69,0,0,0,336,113a7,7,0,0,0-1.57-4.62,14.35,14.35,0,0,0-4.56-3.4q-3-1.53-9.18-4-10.28-4.2-14.89-9.39a18.6,18.6,0,0,1-4.61-12.84,18.54,18.54,0,0,1,3.35-11,21.73,21.73,0,0,1,9.44-7.4A35.35,35.35,0,0,1,328,57.73a56.9,56.9,0,0,1,11.54,1.05A46.68,46.68,0,0,1,349.4,62V75.66a41.07,41.07,0,0,0-18.46-4.61c-3.92,0-7,.68-9.23,2a6.45,6.45,0,0,0-3.36,5.82,6.54,6.54,0,0,0,1.58,4.5,13.69,13.69,0,0,0,4.4,3.15q2.84,1.37,9.23,4a66.56,66.56,0,0,1,11.64,6,18.38,18.38,0,0,1,6.19,6.81,21.43,21.43,0,0,1,2,9.7q0,10-7.18,15.52t-21.45,5.56A71,71,0,0,1,311.43,132.92Z"/><path class="cls-1" d="M366.33,129.31q-4.56-4.89-4.56-13.59v-22h-7.34V82.27h7.34V67.17h15.84v15.1h11.84V93.7H377.61v19.93c0,2.93.55,5.05,1.67,6.34s3.11,1.94,6,1.94a13.85,13.85,0,0,0,6.61-1.68v11.85a30.62,30.62,0,0,1-12.17,2.1Q370.9,134.18,366.33,129.31Z"/><path class="cls-1" d="M401.36,129.51q-5.82-4.66-5.82-12.74,0-8.38,5.56-13t15.73-4.67a38.59,38.59,0,0,1,8.59.94,29.35,29.35,0,0,1,7.24,2.63v-1.26q0-4.73-3.35-6.92T419,92.23a41.32,41.32,0,0,0-17,3.46V84.16a41.11,41.11,0,0,1,8.7-2.47,58.69,58.69,0,0,1,10.7-1q13.63,0,20.34,5.61T448.5,102v30.62H433.6V128q-6.39,6.2-17.19,6.19Q407.17,134.18,401.36,129.51Zm26.37-7.28a11.94,11.94,0,0,0,4.93-4.09v-5a20.76,20.76,0,0,0-11.74-3.56q-4.41,0-6.77,1.83a6.45,6.45,0,0,0-2.36,5.4,6.1,6.1,0,0,0,2.31,5.14q2.31,1.78,6.61,1.78A16.4,16.4,0,0,0,427.73,122.23Z"/><path class="cls-1" d="M464.07,129.31q-4.56-4.89-4.56-13.59v-22h-7.34V82.27h7.34V67.17h15.83v15.1h11.85V93.7H475.34v19.93c0,2.93.56,5.05,1.68,6.34s3.11,1.94,6,1.94a13.81,13.81,0,0,0,6.6-1.68v11.85a30.57,30.57,0,0,1-12.16,2.1Q468.64,134.18,464.07,129.31Z"/><path class="cls-1" d="M499.46,72.1a8.56,8.56,0,0,1,0-12.11,9,9,0,0,1,12.38,0,8.56,8.56,0,0,1,0,12.11,9.15,9.15,0,0,1-12.38,0Zm-1.78,10.17h15.94v50.34H497.68Z"/><path class="cls-1" d="M531.24,127.21q-8.09-7-8.08-19.67t8.13-19.76q8.13-7.08,21.76-7.08,12.38,0,19.71,4.61V97.79A23.11,23.11,0,0,0,565,94.23a37.26,37.26,0,0,0-9.38-1.16q-7.35,0-11.75,3.57t-4.4,10.9q0,7.35,4.35,10.86t11.69,3.51A32.68,32.68,0,0,0,573.39,117v12.38q-7.75,4.81-20.45,4.82Q539.32,134.18,531.24,127.21Z"/><polygon class="cls-1" points="132.61 0 132.61 41.7 102.88 41.7 49.61 132.61 0 132.61 0 90.71 26.69 90.71 80.51 0 132.61 0"/><polygon class="cls-1" points="98.18 132.61 132.61 70.16 132.61 132.61 98.18 132.61"/><polygon class="cls-1" points="34.43 0 0 62.45 0 0 34.43 0"/></g></g></svg>