<svg xmlns="http://www.w3.org/2000/svg" viewBox="0 0 182.94 158.53"><defs><style>.cls-1{fill:#6e75ee;}</style></defs><title>Asset 9</title><g id="Layer_2" data-name="Layer 2"><g id="Layer_1-2" data-name="Layer 1"><path class="cls-1" d="M163.66,107.17H18.24l3.35,3.6V17.92l-3.35,3.6H163.66l-3.35-3.6v92.85a3.35,3.35,0,1,0,6.69,0V17.92a3.5,3.5,0,0,0-3.34-3.59H18.24a3.5,3.5,0,0,0-3.34,3.59v92.85a3.5,3.5,0,0,0,3.34,3.59H163.66C168,114.36,168,107.17,163.66,107.17Z"/><path class="cls-1" d="M103.71,107.17H78.19a3.51,3.51,0,0,0-3.34,3.6v24.89a3.51,3.51,0,0,0,3.34,3.6h25.52a3.51,3.51,0,0,0,3.34-3.6V110.77a3.35,3.35,0,1,0-6.69,0v24.89l3.35-3.59H78.19l3.35,3.59V110.77l-3.35,3.59h25.52C108,114.36,108,107.17,103.71,107.17Z"/><path class="cls-1" d="M128.18,151.15H53.72l1.69,6.7,19.37-15.1,4.16-3.25c2-1.58-1.44-.24-.21-.24h24.44c1.23,0-2.23-1.34-.21.24l4.17,3.25,19.36,15.1c3.5,2.73,6.83-3.51,3.37-6.21l-19.8-15.44c-1.89-1.48-4.21-4.13-6.7-4.13H78.73c-2.52,0-4.53,2.28-6.46,3.79L52,151.64c-2.57,2-1.88,6.7,1.68,6.7h74.46C132.49,158.34,132.49,151.15,128.18,151.15Z"/><path class="cls-1" d="M54.07,54.56H3.34l3.35,3.6V3.6L3.34,7.19H54.07L50.72,3.6V58.16a3.35,3.35,0,1,0,6.69,0V3.6A3.51,3.51,0,0,0,54.07,0H3.34A3.51,3.51,0,0,0,0,3.6V58.16a3.51,3.51,0,0,0,3.34,3.6H54.07C58.38,61.76,58.38,54.56,54.07,54.56Z"/><path class="cls-1" d="M179.6,125.06H131.76l3.35,3.59V77.19l-3.35,3.6H179.6l-3.34-3.6v51.46a3.34,3.34,0,1,0,6.68,0V77.19a3.5,3.5,0,0,0-3.34-3.59H131.76a3.5,3.5,0,0,0-3.34,3.59v51.46a3.51,3.51,0,0,0,3.34,3.6H179.6C183.91,132.25,183.91,125.06,179.6,125.06Z"/><path class="cls-1" d="M70.21,75.34l12,6.67c1.78,1,3.43.33,4.58-1.29l27.28-38.5c2.61-3.69-3.2-7.27-5.78-3.63L81.05,77.09l4.58-1.29-12-6.67c-3.83-2.12-7.21,4.08-3.38,6.21Z"/></g></g></svg>