<svg xmlns="http://www.w3.org/2000/svg" viewBox="0 0 156.49 137.92"><defs><style>.cls-1{fill:#6e75ee;}</style></defs><title>Asset 8</title><g id="Layer_2" data-name="Layer 2"><g id="Layer_1-2" data-name="Layer 1"><path class="cls-1" d="M153.05,88.8H3.44l3.44,3.44V3.44L3.44,6.88H153.05l-3.44-3.44v88.8c0,4.43,6.88,4.43,6.88,0V3.44A3.47,3.47,0,0,0,153.05,0H3.44A3.47,3.47,0,0,0,0,3.44v88.8a3.47,3.47,0,0,0,3.44,3.44H153.05C157.49,95.68,157.49,88.8,153.05,88.8Z"/><path class="cls-1" d="M91.37,88.8H65.12a3.47,3.47,0,0,0-3.44,3.44v23.81a3.47,3.47,0,0,0,3.44,3.44H91.37a3.47,3.47,0,0,0,3.44-3.44V92.24c0-4.44-6.88-4.44-6.88,0v23.81l3.44-3.44H65.12l3.44,3.44V92.24l-3.44,3.44H91.37C95.81,95.68,95.81,88.8,91.37,88.8Z"/><path class="cls-1" d="M116.55,130.86H39.94l1.74,6.41L61.6,122.83l4.29-3.11c2.08-1.51-1.48-.23-.22-.23H90.82c1.26,0-2.3-1.28-.22.23l4.29,3.11,19.92,14.44c3.6,2.61,7-3.36,3.47-5.94L97.9,116.56c-1.94-1.41-4.32-4-6.89-4H65.67c-2.59,0-4.66,2.19-6.64,3.63L38.21,131.33c-2.64,1.91-1.93,6.41,1.73,6.41h76.61C121,137.74,121,130.86,116.55,130.86Z"/><path class="cls-1" d="M64.62,60.06H27.8l3.44,3.44V26.68L27.8,30.12H64.62l-3.44-3.44V63.5c0,4.43,6.88,4.43,6.88,0V26.68a3.47,3.47,0,0,0-3.44-3.44H27.8a3.47,3.47,0,0,0-3.44,3.44V63.5a3.47,3.47,0,0,0,3.44,3.43H64.62C69.06,66.93,69.06,60.06,64.62,60.06Z"/></g></g></svg>