<svg xmlns="http://www.w3.org/2000/svg" viewBox="0 0 150.97 155.46"><defs><style>.cls-1{fill:#6e75ee;}</style></defs><title>Asset 4</title><g id="Layer_2" data-name="Layer 2"><g id="Layer_1-2" data-name="Layer 1"><path class="cls-1" d="M147.65,108.91H3.32l3.32,3.26V28L3.32,31.29H147.65L144.33,28v84.14c0,4.21,6.64,4.21,6.64,0V28a3.32,3.32,0,0,0-3.32-3.26H3.32A3.32,3.32,0,0,0,0,28v84.14a3.32,3.32,0,0,0,3.32,3.26H147.65C151.93,115.43,151.93,108.91,147.65,108.91Z"/><path class="cls-1" d="M88.15,108.91H62.82a3.33,3.33,0,0,0-3.32,3.26v22.56A3.32,3.32,0,0,0,62.82,138H88.15a3.32,3.32,0,0,0,3.31-3.26V112.17c0-4.2-6.63-4.2-6.63,0v22.56l3.32-3.25H62.82l3.32,3.25V112.17l-3.32,3.26H88.15C92.42,115.43,92.42,108.91,88.15,108.91Z"/><path class="cls-1" d="M112.43,148.77H38.53l1.68,6.07,19.22-13.68,4.14-2.95c2-1.43-1.44-.22-.22-.22H87.61c1.22,0-2.21-1.21-.21.22l4.14,2.95,19.22,13.68c3.47,2.48,6.78-3.18,3.35-5.62l-19.66-14c-1.88-1.34-4.17-3.74-6.65-3.74H63.35c-2.5,0-4.49,2.07-6.41,3.43L36.86,149.22c-2.55,1.81-1.86,6.07,1.67,6.07h73.9C116.71,155.29,116.71,148.77,112.43,148.77Z"/><path class="cls-1" d="M75.73,49.49c-12.14,0-21.88-9.25-22.1-21.21s9.59-21.5,21.6-21.72A21.67,21.67,0,0,1,97.34,27.78c.22,11.93-9.6,21.5-21.61,21.71-4.27.08-4.28,6.6,0,6.52A28.37,28.37,0,0,0,104,28.28C104.25,13.39,92.38,1.45,77.59.11S49.15,9.8,47.26,24.16A28.22,28.22,0,0,0,69.77,55.48a29.83,29.83,0,0,0,6,.53C80,56,80,49.49,75.73,49.49Z"/><path class="cls-1" d="M78.8,85.18V16.59c0-4.2-6.63-4.2-6.63,0V85.18c0,4.2,6.63,4.2,6.63,0Z"/><path class="cls-1" d="M39.58,96.81V63.41c0-4.2-6.63-4.2-6.63,0v33.4c0,4.2,6.63,4.2,6.63,0Z"/><path class="cls-1" d="M118.21,96.81V63.41c0-4.2-6.63-4.2-6.63,0v33.4c0,4.2,6.63,4.2,6.63,0Z"/></g></g></svg>