<svg xmlns="http://www.w3.org/2000/svg" viewBox="0 0 137.92 154.94"><defs><style>.cls-1{fill:#6e75ee;}</style></defs><title>Asset 5</title><g id="Layer_2" data-name="Layer 2"><g id="Layer_1-2" data-name="Layer 1"><path class="cls-1" d="M109.67,149H3.22l3.22,3V3l-3.22,3H134.71l-3.22-3V129.13c0,3.83,6.43,3.83,6.43,0V3a3.13,3.13,0,0,0-3.21-3H3.22A3.13,3.13,0,0,0,0,3V152a3.13,3.13,0,0,0,3.22,3H109.67a3,3,0,1,0,0-5.95Z"/><path class="cls-1" d="M114.64,152v-21.5l-3.22,3h23.29a3,3,0,1,0,0-5.94H111.42a3.13,3.13,0,0,0-3.21,3V152c0,3.83,6.43,3.83,6.43,0Z"/><path class="cls-1" d="M98.42,87.72l-35,30.12H69L34,87.72l1.17,2.1V37.62l-5.05,2.87a146.93,146.93,0,0,0,72.17,0l-5-2.87v52.2c0,3.84,8,3.84,8,0V37.62c0-1.83-2.57-3.5-5-2.86a137.3,137.3,0,0,1-67.93,0c-2.48-.64-5,1-5,2.86V89.4c0,1.86,1.72,3,3.25,4.32l22.76,19.57L63.39,122A5,5,0,0,0,69,122l35-30.11C107.41,89,101.79,84.82,98.42,87.72Z"/><path class="cls-1" d="M51.28,74.52,65.64,80A5,5,0,0,0,71.09,79l32.54-31.81c3.12-3-3.81-6-6.89-3L64.21,76l5.45-1.07L55.3,69.39c-4.56-1.75-8.59,3.38-4,5.13Z"/></g></g></svg>